<svg width="533" height="63" viewBox="0 0 533 63" fill="none" xmlns="http://www.w3.org/2000/svg">
<path fill-rule="evenodd" clip-rule="evenodd" d="M13.0942 13.6607L13.1244 16.2014C17.7943 12.4812 24.2155 12.0426 30.0559 12.4811C36.4044 13.1405 42.3144 17.0059 44.7975 22.9884C47.3502 29.2644 47.2051 37.7301 43.4123 43.3467C38.7424 50.2063 30.4975 52.6139 22.7607 51.7398C19.11 51.2256 15.6106 50.0612 12.8371 47.6506L12.6919 47.8684L12.6889 62.2229L0.723793 62.2471V13.6607H13.0942ZM12.6889 28.0939C11.0103 31.5993 11.8844 36.3388 14.6579 39.1153C17.87 42.5422 22.685 43.7822 27.2098 42.6178C30.7848 41.4473 33.4857 38.093 34.142 34.4424C34.7984 30.2111 33.9969 25.6863 30.6396 23.1336C27.1372 20.2149 21.6627 20.2875 17.7974 22.4017C15.6076 23.4996 13.4904 25.7589 12.6889 28.0939ZM212.727 13.691H223.784L223.818 18.745C225.862 15.3152 228.863 13.0195 234.518 13.0195C240.174 13.0195 241.856 14.7314 241.856 14.7314L241.841 25.0935C238.193 23.1971 232.943 22.686 228.926 23.9986C224.622 25.6047 223.818 30.2746 223.6 34.3607V50.8294H212.727V13.691ZM94.7117 13.7515V50.8113H82.181V48.2948C78.5852 50.999 74.2068 52.4588 69.7077 52.4536C58.3535 52.4536 49.1499 44.6866 49.1499 32.3222C49.1499 19.9578 58.3535 12.1938 69.7077 12.1938C74.4048 12.1938 78.7178 13.7515 82.181 16.3465V13.7515H94.7117ZM72.7534 43.507C78.739 43.507 83.5904 38.4802 83.5904 32.2829C83.5904 26.0856 78.739 21.0618 72.7534 21.0618C66.7678 21.0618 61.4507 24.2588 61.4507 32.2829C61.4507 40.31 66.7678 43.507 72.7534 43.507ZM288.041 13.7515V50.8113H275.51V48.2948C271.914 50.999 267.536 52.4588 263.037 52.4536C251.683 52.4536 242.479 44.6866 242.479 32.3222C242.479 19.9578 251.683 12.1938 263.037 12.1938C267.734 12.1938 272.047 13.7515 275.51 16.3465V13.7515H288.041ZM266.083 43.507C272.068 43.507 276.92 38.4802 276.92 32.2829C276.92 26.0856 272.068 21.0618 266.083 21.0618C260.097 21.0618 254.78 24.2588 254.78 32.2829C254.777 40.31 260.097 43.507 266.083 43.507ZM389.009 13.7515V50.8113H376.479V48.2948C372.884 50.999 368.507 52.4588 364.008 52.4536C352.654 52.4536 343.451 44.6866 343.451 32.3222C343.451 19.9578 352.654 12.1938 364.008 12.1938C368.706 12.1938 373.019 13.7515 376.479 16.3465V13.7515H389.009ZM367.051 43.507C373.037 43.507 377.885 38.4802 377.885 32.2829C377.885 26.0856 373.034 21.0618 367.051 21.0618C361.069 21.0618 355.745 24.2588 355.745 32.2829C355.745 40.31 361.069 43.507 367.051 43.507ZM307.452 0.751953V16.3496C311.051 13.6489 315.43 12.1914 319.929 12.1969C331.283 12.1969 340.487 19.9609 340.487 32.3252C340.487 44.6896 331.283 52.4566 319.929 52.4566C315.429 52.4614 311.049 51.0017 307.452 48.2979V50.8143H294.928V0.751953H307.452ZM328.186 32.2829C328.186 24.2557 322.869 21.0618 316.886 21.0618C310.903 21.0618 306.046 26.0886 306.046 32.2829C306.046 38.4772 310.9 43.507 316.886 43.507C322.872 43.507 328.186 40.31 328.186 32.2829ZM142.545 36.2692C142.545 38.822 140.93 52.2025 120.862 52.2025C100.794 52.2025 97.7906 38.4862 97.7906 32.4674C97.7906 26.4455 100.247 12.1485 121.316 12.1485C142.388 12.1485 142.536 28.1937 142.536 28.1937H131.049C131.049 28.1937 129.433 21.092 122.045 21.092C114.659 21.092 110.766 25.9948 110.766 32.4704C110.766 38.952 115.203 43.752 121.679 43.752C128.154 43.752 131.194 37.3671 131.194 36.2723H142.545V36.2692ZM168.202 12.7534C177.506 12.7534 191.246 17.3235 191.246 32.918C191.246 48.5187 176.592 52.8256 167.652 52.8256C158.348 52.8256 145.01 48.2404 145.01 32.4643C145.013 16.6853 159.537 12.7534 168.202 12.7534ZM156.419 32.8424C156.419 39.1456 161.376 44.2601 167.488 44.2601C173.601 44.2601 178.558 39.1456 178.558 32.8424C178.558 26.5393 173.601 21.4278 167.488 21.4278C161.376 21.4278 156.419 26.5393 156.419 32.8424ZM420.419 11.97C410.502 11.97 406.766 16.7548 406.5 17.1148V13.6607H393.994V50.8143H406.5V22.8433L406.525 28.7683C406.567 27.3559 407.187 21.7121 414.766 21.7121C422.89 21.7121 422.866 26.4183 422.866 26.4183V50.8143H435.373V22.7949C435.37 22.7949 435.288 11.97 420.419 11.97Z" fill="black"/>
<path fill-rule="evenodd" clip-rule="evenodd" d="M406.531 29.0897L406.525 28.7721C406.525 28.9717 406.531 29.0897 406.531 29.0897ZM467.629 11.9707C457.706 11.9707 453.971 16.7556 453.704 17.1155V13.6614H441.198V50.8151H453.704V22.844L453.735 28.7691C453.771 27.3566 454.391 21.7128 461.97 21.7128C470.094 21.7128 470.07 26.419 470.07 26.419V50.8151H482.577V22.7956C482.574 22.7956 482.498 11.9707 467.629 11.9707Z" fill="black"/>
<path fill-rule="evenodd" clip-rule="evenodd" d="M453.735 29.089V28.7714C453.731 28.8772 453.731 28.9832 453.735 29.089ZM499.953 35.3952C499.953 39.4057 502.512 43.7883 509.447 43.7883C516.382 43.7883 519.289 38.9672 519.289 38.9672H531.405C531.405 42.4999 526.23 52.2601 509.813 52.2601C491.294 52.2601 487.253 39.7596 487.253 32.5581C487.253 25.3476 491.206 11.7734 509.997 11.7734C528.789 11.7734 532.279 25.3748 532.279 35.3165L499.953 35.3952ZM519.655 27.3015C519.655 27.3015 519.842 19.6826 509.813 19.6826C499.777 19.6826 499.953 27.2924 499.953 27.2924L519.655 27.3015Z" fill="black"/>
</svg>
