<svg width="532" height="58" viewBox="0 0 532 58" fill="none" xmlns="http://www.w3.org/2000/svg">
<path fill-rule="evenodd" clip-rule="evenodd" d="M12.3704 12.0943L12.4007 14.4747C17.0706 10.9892 23.4917 10.5783 29.3321 10.9892C35.6806 11.6069 41.5906 15.2284 44.0737 20.8335C46.6265 26.7135 46.4813 34.6451 42.6885 39.9073C38.0186 46.3342 29.7737 48.5898 22.0369 47.7709C18.3862 47.2892 14.8868 46.1982 12.1133 43.9397L11.9681 44.1437L11.9651 57.5926L0 57.6152V12.0943H12.3704ZM11.9651 25.6168C10.2865 28.9011 11.1606 33.3416 13.9341 35.9429C17.1462 39.1536 21.9613 40.3154 26.486 39.2244C30.061 38.1277 32.7619 34.9851 33.4183 31.5648C34.0746 27.6005 33.2731 23.3612 29.9158 20.9695C26.4134 18.235 20.939 18.303 17.0736 20.2838C14.8838 21.3124 12.7666 23.4292 11.9651 25.6168ZM212.003 12.1227H223.061L223.094 16.8578C225.138 13.6444 228.139 11.4936 233.795 11.4936C239.451 11.4936 241.132 13.0975 241.132 13.0975L241.117 22.8058C237.469 21.0291 232.219 20.5502 228.202 21.78C223.898 23.2847 223.094 27.66 222.876 31.4883V46.9179H212.003V12.1227ZM93.9879 12.1793V46.9009H81.4572V44.5433C77.8615 47.0768 73.483 48.4446 68.9839 48.4396C57.6298 48.4396 48.4261 41.1627 48.4261 29.5784C48.4261 17.9941 57.6298 10.72 68.9839 10.72C73.681 10.72 77.9941 12.1793 81.4572 14.6107V12.1793H93.9879ZM72.0296 40.0575C78.0152 40.0575 82.8666 35.3479 82.8666 29.5416C82.8666 23.7353 78.0152 19.0285 72.0296 19.0285C66.0441 19.0285 60.7269 22.0237 60.7269 29.5416C60.7269 37.0623 66.0441 40.0575 72.0296 40.0575ZM287.317 12.1793V46.9009H274.786V44.5433C271.191 47.0768 266.812 48.4446 262.313 48.4396C250.959 48.4396 241.755 41.1627 241.755 29.5784C241.755 17.9941 250.959 10.72 262.313 10.72C267.01 10.72 271.323 12.1793 274.786 14.6107V12.1793H287.317ZM265.359 40.0575C271.344 40.0575 276.196 35.3479 276.196 29.5416C276.196 23.7353 271.344 19.0285 265.359 19.0285C259.373 19.0285 254.056 22.0237 254.056 29.5416C254.053 37.0623 259.373 40.0575 265.359 40.0575ZM388.286 12.1793V46.9009H375.755V44.5433C372.16 47.0768 367.783 48.4446 363.285 48.4396C351.931 48.4396 342.727 41.1627 342.727 29.5784C342.727 17.9941 351.931 10.72 363.285 10.72C367.982 10.72 372.295 12.1793 375.755 14.6107V12.1793H388.286ZM366.327 40.0575C372.313 40.0575 377.161 35.3479 377.161 29.5416C377.161 23.7353 372.31 19.0285 366.327 19.0285C360.345 19.0285 355.022 22.0237 355.022 29.5416C355.022 37.0623 360.345 40.0575 366.327 40.0575ZM306.729 0V14.6135C310.327 12.0832 314.706 10.7177 319.205 10.7228C330.559 10.7228 339.763 17.997 339.763 29.5812C339.763 41.1655 330.559 48.4425 319.205 48.4425C314.705 48.447 310.326 47.0793 306.729 44.5461V46.9038H294.204V0H306.729ZM327.462 29.5416C327.462 22.0209 322.145 19.0285 316.162 19.0285C310.18 19.0285 305.322 23.7381 305.322 29.5416C305.322 35.345 310.177 40.0575 316.162 40.0575C322.148 40.0575 327.462 37.0623 327.462 29.5416ZM141.821 33.2764C141.821 35.6681 140.206 48.2044 120.138 48.2044C100.07 48.2044 97.0669 35.3535 97.0669 29.7144C97.0669 24.0725 99.5228 10.6775 120.592 10.6775C141.664 10.6775 141.812 25.7104 141.812 25.7104H130.325C130.325 25.7104 128.71 19.0568 121.321 19.0568C113.935 19.0568 110.042 23.6502 110.042 29.7172C110.042 35.7899 114.479 40.287 120.955 40.287C127.43 40.287 130.47 34.305 130.47 33.2792H141.821V33.2764ZM167.478 11.2442C176.782 11.2442 190.522 15.526 190.522 30.1366C190.522 44.753 175.868 48.7882 166.928 48.7882C157.624 48.7882 144.286 44.4923 144.286 29.7116C144.289 14.928 158.813 11.2442 167.478 11.2442ZM155.695 30.0658C155.695 35.9713 160.652 40.7631 166.765 40.7631C172.877 40.7631 177.834 35.9713 177.834 30.0658C177.834 24.1603 172.877 19.3713 166.765 19.3713C160.652 19.3713 155.695 24.1603 155.695 30.0658ZM419.696 10.5103C409.778 10.5103 406.043 14.9932 405.777 15.3304V12.0943H393.27V46.9038H405.777V20.6975L405.801 26.2488C405.843 24.9254 406.463 19.6377 414.043 19.6377C422.167 19.6377 422.142 24.047 422.142 24.047V46.9038H434.649V20.6522C434.646 20.6522 434.564 10.5103 419.696 10.5103Z" fill="black"/>
<path fill-rule="evenodd" clip-rule="evenodd" d="M405.807 26.548L405.801 26.2504C405.801 26.4375 405.807 26.548 405.807 26.548ZM466.906 10.5078C456.982 10.5078 453.247 14.9911 452.981 15.3284V12.092H440.474V46.9043H452.981V20.6959L453.011 26.2476C453.047 24.9241 453.667 19.636 461.247 19.636C469.371 19.636 469.346 24.0456 469.346 24.0456V46.9043H481.853V20.6505C481.85 20.6505 481.774 10.5078 466.906 10.5078Z" fill="black"/>
<path fill-rule="evenodd" clip-rule="evenodd" d="M453.011 26.5473V26.2498C453.007 26.3489 453.007 26.4482 453.011 26.5473ZM499.229 32.4549C499.229 36.212 501.788 40.3176 508.723 40.3176C515.659 40.3176 518.565 35.8012 518.565 35.8012H530.681C530.681 39.1106 525.506 48.2539 509.089 48.2539C490.57 48.2539 486.529 36.5435 486.529 29.7972C486.529 23.0424 490.482 10.3262 509.274 10.3262C528.065 10.3262 531.556 23.0679 531.556 32.3813L499.229 32.4549ZM518.931 24.8728C518.931 24.8728 519.119 17.7355 509.089 17.7355C499.054 17.7355 499.229 24.8643 499.229 24.8643L518.931 24.8728Z" fill="black"/>
</svg>
