<svg width="402" height="115" viewBox="0 0 402 115" fill="none" xmlns="http://www.w3.org/2000/svg">
<path d="M58.588 42.202V112.818H46.463V87.695C42.389 92.351 36.86 94.679 29.876 94.679C24.832 94.679 20.3053 93.5797 16.296 91.381C12.3513 89.1823 9.24733 86.0783 6.984 82.069C4.78533 78.0597 3.686 73.4037 3.686 68.101C3.686 62.863 4.81767 58.2393 7.081 54.23C9.34433 50.2207 12.4483 47.1167 16.393 44.918C20.3377 42.7193 24.832 41.62 29.876 41.62C33.4327 41.62 36.666 42.2343 39.576 43.463C42.5507 44.6917 45.0403 46.5347 47.045 48.992V42.202H58.588ZM31.234 84.3C35.696 84.3 39.382 82.8127 42.292 79.838C45.202 76.8633 46.657 72.951 46.657 68.101C46.657 63.251 45.202 59.3387 42.292 56.364C39.382 53.3893 35.696 51.902 31.234 51.902C26.772 51.902 23.086 53.3893 20.176 56.364C17.3307 59.3387 15.908 63.251 15.908 68.101C15.908 72.951 17.3307 76.8633 20.176 79.838C23.086 82.8127 26.772 84.3 31.234 84.3ZM124.601 42.202V94H113.058V87.404C111.118 89.732 108.693 91.5427 105.783 92.836C102.873 94.0647 99.7367 94.679 96.374 94.679C89.4547 94.679 83.9904 92.7713 79.981 88.956C76.0364 85.076 74.064 79.353 74.064 71.787V42.202H86.189V70.138C86.189 74.794 87.2237 78.286 89.293 80.614C91.427 82.8773 94.434 84.009 98.314 84.009C102.647 84.009 106.074 82.6833 108.596 80.032C111.183 77.316 112.476 73.436 112.476 68.392V42.202H124.601ZM191.11 42.202V112.818H178.985V87.695C174.911 92.351 169.382 94.679 162.398 94.679C157.354 94.679 152.828 93.5797 148.818 91.381C144.874 89.1823 141.77 86.0783 139.506 82.069C137.308 78.0597 136.208 73.4037 136.208 68.101C136.208 62.863 137.34 58.2393 139.603 54.23C141.867 50.2207 144.971 47.1167 148.915 44.918C152.86 42.7193 157.354 41.62 162.398 41.62C165.955 41.62 169.188 42.2343 172.098 43.463C175.073 44.6917 177.563 46.5347 179.567 48.992V42.202H191.11ZM163.756 84.3C168.218 84.3 171.904 82.8127 174.814 79.838C177.724 76.8633 179.179 72.951 179.179 68.101C179.179 63.251 177.724 59.3387 174.814 56.364C171.904 53.3893 168.218 51.902 163.756 51.902C159.294 51.902 155.608 53.3893 152.698 56.364C149.853 59.3387 148.43 63.251 148.43 68.101C148.43 72.951 149.853 76.8633 152.698 79.838C155.608 82.8127 159.294 84.3 163.756 84.3ZM257.124 42.202V94H245.581V87.404C243.641 89.732 241.216 91.5427 238.306 92.836C235.396 94.0647 232.259 94.679 228.897 94.679C221.977 94.679 216.513 92.7713 212.504 88.956C208.559 85.076 206.587 79.353 206.587 71.787V42.202H218.712V70.138C218.712 74.794 219.746 78.286 221.816 80.614C223.95 82.8773 226.957 84.009 230.837 84.009C235.169 84.009 238.597 82.6833 241.119 80.032C243.705 77.316 244.999 73.436 244.999 68.392V42.202H257.124Z" fill="black"/>
<path d="M301.24 20.4C303.933 20.4 306.067 21.1867 307.64 22.76C309.213 24.3067 310 26.64 310 29.76V42H305V30.4C305 28.5333 304.587 27.1333 303.76 26.2C302.933 25.24 301.747 24.76 300.2 24.76C298.52 24.76 297.173 25.32 296.16 26.44C295.147 27.5333 294.64 29.1067 294.64 31.16V42H289.64V30.4C289.64 28.5333 289.227 27.1333 288.4 26.2C287.573 25.24 286.387 24.76 284.84 24.76C283.133 24.76 281.773 25.3067 280.76 26.4C279.773 27.4933 279.28 29.08 279.28 31.16V42H274.28V20.64H279.04V23.36C279.84 22.4 280.84 21.6667 282.04 21.16C283.24 20.6533 284.573 20.4 286.04 20.4C287.64 20.4 289.053 20.7067 290.28 21.32C291.533 21.9067 292.52 22.7867 293.24 23.96C294.12 22.84 295.253 21.9733 296.64 21.36C298.027 20.72 299.56 20.4 301.24 20.4ZM336.665 31.44C336.665 31.7867 336.638 32.28 336.585 32.92H319.825C320.118 34.4933 320.878 35.7467 322.105 36.68C323.358 37.5867 324.905 38.04 326.745 38.04C329.091 38.04 331.025 37.2667 332.545 35.72L335.225 38.8C334.265 39.9467 333.051 40.8133 331.585 41.4C330.118 41.9867 328.465 42.28 326.625 42.28C324.278 42.28 322.211 41.8133 320.425 40.88C318.638 39.9467 317.251 38.6533 316.265 37C315.305 35.32 314.825 33.4267 314.825 31.32C314.825 29.24 315.291 27.3733 316.225 25.72C317.185 24.04 318.505 22.7333 320.185 21.8C321.865 20.8667 323.758 20.4 325.865 20.4C327.945 20.4 329.798 20.8667 331.425 21.8C333.078 22.7067 334.358 24 335.265 25.68C336.198 27.3333 336.665 29.2533 336.665 31.44ZM325.865 24.4C324.265 24.4 322.905 24.88 321.785 25.84C320.691 26.7733 320.025 28.0267 319.785 29.6H331.905C331.691 28.0533 331.038 26.8 329.945 25.84C328.851 24.88 327.491 24.4 325.865 24.4ZM362.388 12.32V42H357.588V39.24C356.761 40.2533 355.734 41.0133 354.508 41.52C353.308 42.0267 351.974 42.28 350.508 42.28C348.454 42.28 346.601 41.8267 344.948 40.92C343.321 40.0133 342.041 38.7333 341.108 37.08C340.174 35.4 339.708 33.48 339.708 31.32C339.708 29.16 340.174 27.2533 341.108 25.6C342.041 23.9467 343.321 22.6667 344.948 21.76C346.601 20.8533 348.454 20.4 350.508 20.4C351.921 20.4 353.214 20.64 354.388 21.12C355.561 21.6 356.561 22.32 357.388 23.28V12.32H362.388ZM351.108 38C352.308 38 353.388 37.7333 354.348 37.2C355.308 36.64 356.068 35.8533 356.628 34.84C357.188 33.8267 357.468 32.6533 357.468 31.32C357.468 29.9867 357.188 28.8133 356.628 27.8C356.068 26.7867 355.308 26.0133 354.348 25.48C353.388 24.92 352.308 24.64 351.108 24.64C349.908 24.64 348.828 24.92 347.868 25.48C346.908 26.0133 346.148 26.7867 345.588 27.8C345.028 28.8133 344.748 29.9867 344.748 31.32C344.748 32.6533 345.028 33.8267 345.588 34.84C346.148 35.8533 346.908 36.64 347.868 37.2C348.828 37.7333 349.908 38 351.108 38ZM368.928 20.64H373.928V42H368.928V20.64ZM371.448 17.12C370.542 17.12 369.782 16.84 369.168 16.28C368.555 15.6933 368.248 14.9733 368.248 14.12C368.248 13.2667 368.555 12.56 369.168 12C369.782 11.4133 370.542 11.12 371.448 11.12C372.355 11.12 373.115 11.4 373.728 11.96C374.342 12.4933 374.648 13.1733 374.648 14C374.648 14.88 374.342 15.6267 373.728 16.24C373.142 16.8267 372.382 17.12 371.448 17.12ZM388.651 20.4C391.798 20.4 394.198 21.16 395.851 22.68C397.531 24.1733 398.371 26.44 398.371 29.48V42H393.651V39.4C393.038 40.3333 392.158 41.0533 391.011 41.56C389.891 42.04 388.531 42.28 386.931 42.28C385.331 42.28 383.931 42.0133 382.731 41.48C381.531 40.92 380.598 40.16 379.931 39.2C379.291 38.2133 378.971 37.1067 378.971 35.88C378.971 33.96 379.678 32.4267 381.091 31.28C382.531 30.1067 384.784 29.52 387.851 29.52H393.371V29.2C393.371 27.7067 392.918 26.56 392.011 25.76C391.131 24.96 389.811 24.56 388.051 24.56C386.851 24.56 385.664 24.7467 384.491 25.12C383.344 25.4933 382.371 26.0133 381.571 26.68L379.611 23.04C380.731 22.1867 382.078 21.5333 383.651 21.08C385.224 20.6267 386.891 20.4 388.651 20.4ZM387.971 38.64C389.224 38.64 390.331 38.36 391.291 37.8C392.278 37.2133 392.971 36.3867 393.371 35.32V32.84H388.211C385.331 32.84 383.891 33.7867 383.891 35.68C383.891 36.5867 384.251 37.3067 384.971 37.84C385.691 38.3733 386.691 38.64 387.971 38.64Z" fill="black"/>
</svg>
