<svg width="405" height="113" viewBox="0 0 405 113" fill="none" xmlns="http://www.w3.org/2000/svg">
<path d="M58.588 42.202V112.818H46.463V87.695C42.389 92.351 36.86 94.679 29.876 94.679C24.832 94.679 20.3053 93.5797 16.296 91.381C12.3513 89.1823 9.24733 86.0783 6.984 82.069C4.78533 78.0597 3.686 73.4037 3.686 68.101C3.686 62.863 4.81767 58.2393 7.081 54.23C9.34433 50.2207 12.4483 47.1167 16.393 44.918C20.3377 42.7193 24.832 41.62 29.876 41.62C33.4327 41.62 36.666 42.2343 39.576 43.463C42.5507 44.6917 45.0403 46.5347 47.045 48.992V42.202H58.588ZM31.234 84.3C35.696 84.3 39.382 82.8127 42.292 79.838C45.202 76.8633 46.657 72.951 46.657 68.101C46.657 63.251 45.202 59.3387 42.292 56.364C39.382 53.3893 35.696 51.902 31.234 51.902C26.772 51.902 23.086 53.3893 20.176 56.364C17.3307 59.3387 15.908 63.251 15.908 68.101C15.908 72.951 17.3307 76.8633 20.176 79.838C23.086 82.8127 26.772 84.3 31.234 84.3ZM124.601 42.202V94H113.058V87.404C111.118 89.732 108.693 91.5427 105.783 92.836C102.873 94.0647 99.7367 94.679 96.374 94.679C89.4547 94.679 83.9904 92.7713 79.981 88.956C76.0364 85.076 74.064 79.353 74.064 71.787V42.202H86.189V70.138C86.189 74.794 87.2237 78.286 89.293 80.614C91.427 82.8773 94.434 84.009 98.314 84.009C102.647 84.009 106.074 82.6833 108.596 80.032C111.183 77.316 112.476 73.436 112.476 68.392V42.202H124.601ZM191.11 42.202V112.818H178.985V87.695C174.911 92.351 169.382 94.679 162.398 94.679C157.354 94.679 152.828 93.5797 148.818 91.381C144.874 89.1823 141.77 86.0783 139.506 82.069C137.308 78.0597 136.208 73.4037 136.208 68.101C136.208 62.863 137.34 58.2393 139.603 54.23C141.867 50.2207 144.971 47.1167 148.915 44.918C152.86 42.7193 157.354 41.62 162.398 41.62C165.955 41.62 169.188 42.2343 172.098 43.463C175.073 44.6917 177.563 46.5347 179.567 48.992V42.202H191.11ZM163.756 84.3C168.218 84.3 171.904 82.8127 174.814 79.838C177.724 76.8633 179.179 72.951 179.179 68.101C179.179 63.251 177.724 59.3387 174.814 56.364C171.904 53.3893 168.218 51.902 163.756 51.902C159.294 51.902 155.608 53.3893 152.698 56.364C149.853 59.3387 148.43 63.251 148.43 68.101C148.43 72.951 149.853 76.8633 152.698 79.838C155.608 82.8127 159.294 84.3 163.756 84.3ZM257.124 42.202V94H245.581V87.404C243.641 89.732 241.216 91.5427 238.306 92.836C235.396 94.0647 232.259 94.679 228.897 94.679C221.977 94.679 216.513 92.7713 212.504 88.956C208.559 85.076 206.587 79.353 206.587 71.787V42.202H218.712V70.138C218.712 74.794 219.746 78.286 221.816 80.614C223.95 82.8773 226.957 84.009 230.837 84.009C235.169 84.009 238.597 82.6833 241.119 80.032C243.705 77.316 244.999 73.436 244.999 68.392V42.202H257.124Z" fill="black"/>
<path d="M298.24 20.4C300.933 20.4 303.067 21.1867 304.64 22.76C306.213 24.3067 307 26.64 307 29.76V42H302V30.4C302 28.5333 301.587 27.1333 300.76 26.2C299.933 25.24 298.747 24.76 297.2 24.76C295.52 24.76 294.173 25.32 293.16 26.44C292.147 27.5333 291.64 29.1067 291.64 31.16V42H286.64V30.4C286.64 28.5333 286.227 27.1333 285.4 26.2C284.573 25.24 283.387 24.76 281.84 24.76C280.133 24.76 278.773 25.3067 277.76 26.4C276.773 27.4933 276.28 29.08 276.28 31.16V42H271.28V20.64H276.04V23.36C276.84 22.4 277.84 21.6667 279.04 21.16C280.24 20.6533 281.573 20.4 283.04 20.4C284.64 20.4 286.053 20.7067 287.28 21.32C288.533 21.9067 289.52 22.7867 290.24 23.96C291.12 22.84 292.253 21.9733 293.64 21.36C295.027 20.72 296.56 20.4 298.24 20.4ZM333.665 31.44C333.665 31.7867 333.638 32.28 333.585 32.92H316.825C317.118 34.4933 317.878 35.7467 319.105 36.68C320.358 37.5867 321.905 38.04 323.745 38.04C326.091 38.04 328.025 37.2667 329.545 35.72L332.225 38.8C331.265 39.9467 330.051 40.8133 328.585 41.4C327.118 41.9867 325.465 42.28 323.625 42.28C321.278 42.28 319.211 41.8133 317.425 40.88C315.638 39.9467 314.251 38.6533 313.265 37C312.305 35.32 311.825 33.4267 311.825 31.32C311.825 29.24 312.291 27.3733 313.225 25.72C314.185 24.04 315.505 22.7333 317.185 21.8C318.865 20.8667 320.758 20.4 322.865 20.4C324.945 20.4 326.798 20.8667 328.425 21.8C330.078 22.7067 331.358 24 332.265 25.68C333.198 27.3333 333.665 29.2533 333.665 31.44ZM322.865 24.4C321.265 24.4 319.905 24.88 318.785 25.84C317.691 26.7733 317.025 28.0267 316.785 29.6H328.905C328.691 28.0533 328.038 26.8 326.945 25.84C325.851 24.88 324.491 24.4 322.865 24.4ZM359.388 12.32V42H354.588V39.24C353.761 40.2533 352.734 41.0133 351.508 41.52C350.308 42.0267 348.974 42.28 347.508 42.28C345.454 42.28 343.601 41.8267 341.948 40.92C340.321 40.0133 339.041 38.7333 338.108 37.08C337.174 35.4 336.708 33.48 336.708 31.32C336.708 29.16 337.174 27.2533 338.108 25.6C339.041 23.9467 340.321 22.6667 341.948 21.76C343.601 20.8533 345.454 20.4 347.508 20.4C348.921 20.4 350.214 20.64 351.388 21.12C352.561 21.6 353.561 22.32 354.388 23.28V12.32H359.388ZM348.108 38C349.308 38 350.388 37.7333 351.348 37.2C352.308 36.64 353.068 35.8533 353.628 34.84C354.188 33.8267 354.468 32.6533 354.468 31.32C354.468 29.9867 354.188 28.8133 353.628 27.8C353.068 26.7867 352.308 26.0133 351.348 25.48C350.388 24.92 349.308 24.64 348.108 24.64C346.908 24.64 345.828 24.92 344.868 25.48C343.908 26.0133 343.148 26.7867 342.588 27.8C342.028 28.8133 341.748 29.9867 341.748 31.32C341.748 32.6533 342.028 33.8267 342.588 34.84C343.148 35.8533 343.908 36.64 344.868 37.2C345.828 37.7333 346.908 38 348.108 38ZM365.928 20.64H370.928V42H365.928V20.64ZM368.448 17.12C367.542 17.12 366.782 16.84 366.168 16.28C365.555 15.6933 365.248 14.9733 365.248 14.12C365.248 13.2667 365.555 12.56 366.168 12C366.782 11.4133 367.542 11.12 368.448 11.12C369.355 11.12 370.115 11.4 370.728 11.96C371.342 12.4933 371.648 13.1733 371.648 14C371.648 14.88 371.342 15.6267 370.728 16.24C370.142 16.8267 369.382 17.12 368.448 17.12ZM385.651 20.4C388.798 20.4 391.198 21.16 392.851 22.68C394.531 24.1733 395.371 26.44 395.371 29.48V42H390.651V39.4C390.038 40.3333 389.158 41.0533 388.011 41.56C386.891 42.04 385.531 42.28 383.931 42.28C382.331 42.28 380.931 42.0133 379.731 41.48C378.531 40.92 377.598 40.16 376.931 39.2C376.291 38.2133 375.971 37.1067 375.971 35.88C375.971 33.96 376.678 32.4267 378.091 31.28C379.531 30.1067 381.784 29.52 384.851 29.52H390.371V29.2C390.371 27.7067 389.918 26.56 389.011 25.76C388.131 24.96 386.811 24.56 385.051 24.56C383.851 24.56 382.664 24.7467 381.491 25.12C380.344 25.4933 379.371 26.0133 378.571 26.68L376.611 23.04C377.731 22.1867 379.078 21.5333 380.651 21.08C382.224 20.6267 383.891 20.4 385.651 20.4ZM384.971 38.64C386.224 38.64 387.331 38.36 388.291 37.8C389.278 37.2133 389.971 36.3867 390.371 35.32V32.84H385.211C382.331 32.84 380.891 33.7867 380.891 35.68C380.891 36.5867 381.251 37.3067 381.971 37.84C382.691 38.3733 383.691 38.64 384.971 38.64Z" fill="black"/>
</svg>
